<?xml version="1.0" standalone="no"?>
<!DOCTYPE svg PUBLIC "-//W3C//DTD SVG 20010904//EN"
 "http://www.w3.org/TR/2001/REC-SVG-20010904/DTD/svg10.dtd">
<svg version="1.0" xmlns="http://www.w3.org/2000/svg"
 width="108.000000pt" height="108.000000pt" viewBox="0 0 108.000000 108.000000"
 preserveAspectRatio="xMidYMid meet">

<g transform="translate(5.000000,55.000000) scale(0.0050000,-0.00500000)"
fill="#FFFFFF" stroke="none">
<path d="m10083 3423 c173 -83 267 -253 246 -448 -3 -30 -5 -56 -3 -58 1 -2 59
-12 128 -22 153 -22 206 -39 286 -91 160 -103 260 -280 260 -459 l0 -65 391
-210 c260 -140 403 -223 429 -248 53 -53 83 -133 78 -212 -3 -49 -21 -99 -102
-279 -53 -121 -110 -238 -127 -262 -39 -57 -110 -117 -189 -158 -106 -56 -24
-43 -980 -156 -278 -33 -579 -69 -670 -80 -91 -11 -173 -20 -182 -20 -10 0
-225 -244 -535 -607 -284 -335 -622 -730 -749 -879 l-232 -271 427 -736 426
-736 285 -133 c247 -115 291 -139 332 -180 105 -107 121 -284 37 -411 -38 -58
-94 -103 -162 -131 -51 -21 -65 -21 -641 -24 -612 -3 -672 0 -790 39 -133 44
-285 160 -361 275 -19 29 -242 428 -496 886 -253 458 -465 837 -469 842 -7 7
-2080 10 -2087 2 -5 -4 719 -1112 736 -1127 10 -8 141 -71 290 -139 294 -134
328 -157 380 -255 23 -44 26 -61 26 -150 0 -89 -3 -106 -27 -150 -32 -62 -96
-122 -163 -155 l-50 -25 -629 -3 c-604 -2 -633 -2 -710 18 -158 39 -311 138
-399 259 -24 32 -272 422 -552 867 -280 445 -510 811 -512 813 -1 2 -118 -108
-259 -245 -140 -137 -301 -292 -356 -344 l-100 -95 -29 -225 c-16 -124 -29
-226 -29 -228 0 -1 71 -49 158 -106 86 -57 167 -114 179 -127 12 -13 34 -51
50 -84 23 -50 27 -74 27 -140 0 -134 -58 -232 -176 -296 l-63 -34 -295 -3
c-253 -3 -304 -1 -358 13 -69 19 -160 74 -208 126 -34 37 -571 958 -611 1048
-97 218 -65 511 78 705 15 21 234 257 486 524 252 267 489 518 526 558 l68 73
-50 84 c-135 223 -222 475 -266 764 l-7 42 -87 -6 c-108 -7 -195 16 -287 75
-235 152 -274 494 -80 698 60 63 1358 969 1506 1051 221 124 500 208 765 231
56 5 837 7 1770 4 l1670 -4 260 41 c143 23 301 48 350 56 50 8 430 69 845 135
415 66 802 128 859 138 l104 17 4 65 c6 82 33 160 80 228 41 60 86 98 160 136
75 38 116 46 215 42 75 -3 98 -8 161 -38z"/>
</g>
</svg>
